<?xml version="1.0" standalone="no"?>
<!DOCTYPE svg PUBLIC "-//W3C//DTD SVG 1.1//EN" "http://www.w3.org/Graphics/SVG/1.1/DTD/svg11.dtd" >
<svg xmlns="http://www.w3.org/2000/svg" xmlns:xlink="http://www.w3.org/1999/xlink" version="1.1">
<metadata>
Created by FontForge 20170731 at Mon Feb 18 14:34:03 2013
 By Aleksey,,,
Copyright (c) 2013 by Steven Bonner. All rights reserved.
</metadata>
<defs>
<font id="Langdon" horiz-adv-x="221" >
  <font-face 
    font-family="Langdon"
    font-weight="400"
    font-stretch="normal"
    units-per-em="1000"
    panose-1="0 0 0 0 0 0 0 0 0 0"
    ascent="750"
    descent="-250"
    x-height="700"
    cap-height="700"
    bbox="-5 -76 758 756"
    underline-thickness="50"
    underline-position="-200"
    unicode-range="U+0020-E009"
  />
<missing-glyph horiz-adv-x="500" 
d="M0 0v667h500v-667h-500zM80 607v-547h340v547h-340z" />
    <glyph glyph-name=".notdef" horiz-adv-x="500" 
d="M0 0v667h500v-667h-500zM80 607v-547h340v547h-340z" />
    <glyph glyph-name=".null" horiz-adv-x="0" 
 />
    <glyph glyph-name="nonmarkingreturn" horiz-adv-x="333" 
 />
    <glyph glyph-name="space" unicode=" " horiz-adv-x="185" 
 />
    <glyph glyph-name="exclam" unicode="!" 
d="M48 700h125v-497h-125v497zM48 0v125h125v-125h-125z" />
    <glyph glyph-name="numbersign" unicode="#" horiz-adv-x="725" 
d="M675 388h-201l-18 -168h202l-3 -19h-200l-22 -201h-19l22 201h-168l-21 -201h-19l22 201h-202l2 19h201l18 168h-201l2 18h201l21 202h19l-21 -202h167l22 202h18l-21 -202h201zM438 220l18 168h-168l-18 -168h168z" />
    <glyph glyph-name="dollar" unicode="$" horiz-adv-x="455" 
d="M412 147q0 -71 -51.5 -112.5t-128.5 -43.5v-46h-19v46q-73 3 -121 44.5t-48 111.5v73h125v-65q0 -53 44 -64v187l-76 79q-5 6 -22.5 26t-20.5 24.5t-15 20t-14 21.5t-9 20t-8 24.5t-3 26t-2 33.5q0 68 47 110.5t123 45.5v46h19v-46q77 -2 126 -45t49 -111v-49h-125v29
q0 33 -14 53.5t-36 22.5v-171l99 -113q30 -35 44 -54t25.5 -51.5t11.5 -72.5zM206 468l7 -9v150q-19 -5 -31.5 -20t-12.5 -35q0 -43 37 -86zM232 91q22 2 36 19t14 45q0 48 -41 95l-9 9v-168z" />
    <glyph glyph-name="percent" unicode="%" horiz-adv-x="746" 
d="M573 278q62 0 96 -34.5t34 -78.5v-62q0 -44 -34 -78t-96 -34q-68 0 -101 33.5t-33 78.5v63q0 44 33 78t101 34zM613 105v60q0 14 -11 28t-29 14q-21 0 -33 -13.5t-12 -26.5v-62q0 -15 12 -29t33 -14q18 0 29 14.5t11 28.5zM607 700h23l-489 -700h-24zM177 709
q62 0 96 -34.5t34 -78.5v-62q0 -44 -34 -78t-96 -34q-68 0 -101 33.5t-33 78.5v63q0 44 33 78t101 34zM217 536v60q0 14 -11 28t-29 14q-21 0 -33 -13.5t-12 -26.5v-62q0 -15 12 -29t33 -14q18 0 29 14.5t11 28.5z" />
    <glyph glyph-name="ampersand" unicode="&#x26;" horiz-adv-x="553" 
d="M528 0h-286q-88 0 -143.5 61.5t-55.5 148.5q0 128 116 178q-36 14 -64 56.5t-28 92.5q0 82 46.5 127t128.5 45l3 -1h1q2 1 3 1q82 0 128.5 -45t46.5 -127q0 -61 -42 -104.5t-108 -82.5l104 -141q-10 32 -10 59q0 47 29 76l3 3h122v-19h-113q-22 -23 -22 -61
q0 -61 54 -144l86 -117zM247 609q-28 0 -44.5 -21.5t-16.5 -59.5q0 -53 47 -113q31 10 51.5 46t20.5 67q0 81 -58 81zM172 210q0 -46 17.5 -77.5t52.5 -31.5h192q-2 2 -10 14l-166 226q-86 -44 -86 -131z" />
    <glyph glyph-name="parenleft" unicode="(" horiz-adv-x="253" 
d="M122 708h83q-74 -176 -74 -372t74 -372h-83q-74 176 -74 372t74 372z" />
    <glyph glyph-name="parenright" unicode=")" horiz-adv-x="251" 
d="M48 708h82q73 -177 73 -372t-73 -372h-82q73 177 73 372t-73 372z" />
    <glyph glyph-name="asterisk" unicode="*" horiz-adv-x="308" 
d="M265 538l-97 -57l65 -92l-15 -11l-64 90l-63 -90l-16 11l66 92l-98 57l9 16l93 -53v107h19v-107l92 53z" />
    <glyph glyph-name="plus" unicode="+" horiz-adv-x="526" 
d="M478 223v-19h-206v-204h-19v204h-205v19h205v205h19v-205h206z" />
    <glyph glyph-name="comma" unicode="," 
d="M48 125h125v-128l-66 -52h-29l68 55h-98v125z" />
    <glyph glyph-name="hyphen" unicode="-" horiz-adv-x="339" 
d="M291 223v-19h-243v19h243z" />
    <glyph glyph-name="period" unicode="." 
d="M48 0v125h125v-125h-125z" />
    <glyph glyph-name="zero" unicode="0" horiz-adv-x="459" 
d="M230 709q88 0 137 -48.5t49 -108.5v-405q0 -60 -49 -108t-137 -48t-137.5 48t-49.5 108v405q0 60 49.5 108.5t137.5 48.5zM290 148v403q0 18 -17.5 38t-42.5 20t-43 -20t-18 -38v-403q0 -18 17.5 -37.5t43.5 -19.5q25 0 42.5 19.5t17.5 37.5z" />
    <glyph glyph-name="one" unicode="1" horiz-adv-x="254" 
d="M25 672l56 28h125v-700h-125v600h-56v72z" />
    <glyph glyph-name="two" unicode="2" horiz-adv-x="449" 
d="M232 267q-63 -65 -63 -149l1 -18h229v-100h-356q-13 14 -13 88q0 64 27 127t68 110l125 143q37 43 37 86q0 24 -16.5 39.5t-40.5 15.5t-40 -20.5t-16 -55.5v-29h-125v49q0 69 50.5 112.5t130.5 43.5q81 0 132.5 -43t51.5 -113q0 -18 -2 -33.5t-3.5 -26.5t-7.5 -24t-9 -20
t-14 -21.5t-15.5 -20t-20.5 -24t-23 -26.5q-29 -29 -87 -90z" />
    <glyph glyph-name="three" unicode="3" horiz-adv-x="454" 
d="M296 378q115 -50 115 -178q0 -87 -55.5 -148t-143.5 -61q-87 0 -134.5 48.5t-47.5 108.5v55h126v-55q0 -19 15.5 -38t40.5 -19q36 0 53.5 31.5t17.5 77.5q0 62 -23 95t-80 33h-24v100h5q56 0 82 27.5t26 68.5q0 39 -16 62t-41 23t-40.5 -19.5t-15.5 -38.5v-47h-126v48
q0 60 47.5 108.5t134.5 48.5q82 0 129 -47t47 -129q0 -51 -28 -95.5t-64 -59.5z" />
    <glyph glyph-name="four" unicode="4" horiz-adv-x="476" 
d="M451 255v-93h-88v-162h-125v162h-212l-1 99l213 439h125v-445h88zM118 255h120v244z" />
    <glyph glyph-name="five" unicode="5" horiz-adv-x="468" 
d="M245 498q68 0 124 -49.5t56 -127.5v-121q0 -87 -55.5 -148t-143.5 -61t-135.5 48.5t-47.5 108.5v55h127v-55q0 -19 15.5 -38t40.5 -19q36 0 53.5 31.5t17.5 77.5q0 24 -0.5 66t-0.5 46q0 37 -21.5 61.5t-47.5 24.5q-36 0 -51 -36h-123v338h329v-100h-204v-126
q8 10 29.5 17t37.5 7z" />
    <glyph glyph-name="six" unicode="6" horiz-adv-x="467" 
d="M254 428q81 0 125.5 -44.5t44.5 -110.5q0 -5 -0.5 -49.5t-0.5 -48.5q0 -84 -51 -134t-146 -50q-88 0 -135.5 48.5t-47.5 108.5v351q0 87 52.5 148.5t135.5 61.5q84 0 129.5 -48.5t45.5 -108.5v-48h-121v47q0 24 -14.5 41t-39.5 17q-62 0 -62 -110v-110q28 39 85 39z
M295 175q0 4 0.5 48.5t0.5 49.5q0 25 -18.5 40t-44.5 15q-28 0 -46 -11t-18 -25v-144q0 -19 16 -38t41 -19q69 0 69 84z" />
    <glyph glyph-name="seven" unicode="7" horiz-adv-x="405" 
d="M380 700v-97l-198 -603h-138l201 601h-230v99h365z" />
    <glyph glyph-name="eight" unicode="8" horiz-adv-x="490" 
d="M331 378q116 -51 116 -178q0 -87 -55.5 -148t-143.5 -61q-92 0 -148.5 59.5t-56.5 149.5q0 128 115 178q-36 15 -64 59.5t-28 95.5q0 82 46.5 129t128.5 47q86 0 134 -46t48 -130q0 -51 -28 -95.5t-64 -59.5zM255 91q31 0 47.5 33t16.5 76q0 111 -74 125
q-75 -14 -75 -125q0 -109 85 -109zM247 609q-28 0 -45.5 -24t-17.5 -61q0 -69 61 -89q60 20 60 89q0 39 -15 62t-43 23z" />
    <glyph glyph-name="nine" unicode="9" horiz-adv-x="468" 
d="M214 272q-82 0 -126.5 44.5t-44.5 110.5q0 5 0.5 49.5t0.5 48.5q0 85 51.5 134.5t146.5 49.5q88 0 135.5 -48.5t47.5 -108.5v-352q0 -87 -53 -148t-137 -61q-83 0 -128.5 48.5t-45.5 108.5v55h120v-55q0 -23 15 -40t39 -17q33 0 48.5 31t15.5 78v111q-32 -39 -85 -39z
M172 525q0 -4 -0.5 -48.5t-0.5 -49.5q0 -25 18.5 -40.5t43.5 -15.5q29 0 47.5 11.5t18.5 25.5v143q0 19 -16 38.5t-41 19.5q-37 0 -53.5 -20.5t-16.5 -63.5z" />
    <glyph glyph-name="colon" unicode=":" 
d="M48 0v125h125v-125h-125zM48 388h125v-125h-125v125z" />
    <glyph glyph-name="semicolon" unicode=";" 
d="M48 388h125v-125h-125v125zM48 0v125h125v-128l-66 -52h-29l68 55h-98z" />
    <glyph glyph-name="equal" unicode="=" horiz-adv-x="526" 
d="M48 134v19h430v-19h-430zM48 293h430v-19h-430v19z" />
    <glyph glyph-name="question" unicode="?" horiz-adv-x="450" 
d="M162 0v125h125v-125h-125zM224 712q81 0 132 -43.5t51 -114.5q0 -36 -12.5 -65.5t-30 -49.5t-35 -39.5t-30 -45.5t-12.5 -58v-93h-125v69q0 46 12.5 85t30 64.5t34.5 47.5t29.5 44t12.5 44q0 24 -16.5 39.5t-40.5 15.5t-40 -21t-16 -56v-28h-125v47q0 71 50.5 114.5
t130.5 43.5z" />
    <glyph glyph-name="at" unicode="@" horiz-adv-x="756" 
d="M699 376q-22 -58 -77 -90t-130 -33l26 -129h-81l-21 129h-69l-21 -129h-78l94 457h82l64 -310q92 1 149.5 49.5t57.5 129.5q0 100 -91 170.5t-207 70.5q-141 0 -238 -99t-97 -242t97 -242t238 -99q155 0 255 116h24q-50 -63 -123 -98t-156 -35q-149 0 -251.5 103.5
t-102.5 254.5t102.5 254.5t251.5 103.5q124 0 220 -75t96 -183q0 -37 -14 -74zM350 270h62l-29 190h-2z" />
    <glyph glyph-name="A" unicode="A" horiz-adv-x="463" 
d="M313 0l-25 163h-121l-24 -163h-118l144 700h125l144 -700h-125zM188 264h80l-38 251h-3z" />
    <glyph glyph-name="B" unicode="B" horiz-adv-x="445" 
d="M313 378q107 -46 107 -178q0 -88 -49.5 -144t-136.5 -56h-186v700h162q87 0 134.5 -46.5t47.5 -129.5q0 -47 -21 -89t-58 -57zM173 600v-166h6q65 0 84.5 17t19.5 69q0 80 -63 80h-47zM173 100h42q37 0 61.5 29t24.5 71q0 61 -23 94.5t-80 33.5h-25v-228z" />
    <glyph glyph-name="C" unicode="C" horiz-adv-x="451" 
d="M416 497h-126v55q0 18 -16 37.5t-41 19.5q-30 0 -46.5 -19t-16.5 -38v-404q0 -19 16.5 -38t46.5 -19q25 0 41 19.5t16 37.5v55h126v-55q0 -60 -47.5 -108.5t-135.5 -48.5q-95 0 -142.5 47.5t-47.5 108.5v405q0 62 47.5 109.5t142.5 47.5q88 0 135.5 -48.5t47.5 -108.5
v-55z" />
    <glyph glyph-name="D" unicode="D" horiz-adv-x="473" 
d="M420 584q10 -45 10 -84v-300q0 -86 -39.5 -143t-116.5 -57h-226v700h226q53 0 93.5 -32.5t52.5 -83.5zM173 100h75q63 0 63 100v300q0 100 -63 100h-75v-500z" />
    <glyph glyph-name="E" unicode="E" horiz-adv-x="389" 
d="M350 600h-177v-172h127v-100h-127v-228h191v-100h-316v700h302v-100z" />
    <glyph glyph-name="F" unicode="F" horiz-adv-x="374" 
d="M349 600h-176v-172h126v-100h-126v-328h-125v700h301v-100z" />
    <glyph glyph-name="G" unicode="G" horiz-adv-x="458" 
d="M415 497h-126v55q0 18 -16 37.5t-41 19.5q-30 0 -46.5 -19t-16.5 -38v-404q0 -19 16.5 -38t46.5 -19q71 0 71 90v107h-70v100h182v-216q0 -77 -47 -129t-136 -52q-96 0 -142.5 47.5t-46.5 108.5v405q0 62 46.5 109.5t142.5 47.5q88 0 135.5 -48.5t47.5 -108.5v-55z" />
    <glyph glyph-name="H" unicode="H" horiz-adv-x="478" 
d="M305 700h125v-700h-125v329h-132v-329h-125v700h125v-272h132v272z" />
    <glyph glyph-name="I" unicode="I" 
d="M173 700v-700h-125v700h125z" />
    <glyph glyph-name="J" unicode="J" horiz-adv-x="360" 
d="M5 35l63 74q23 -18 54 -18q30 0 47 19t17 38v552h126v-553q0 -62 -47 -109t-143 -47q-80 0 -117 44z" />
    <glyph glyph-name="K" unicode="K" horiz-adv-x="466" 
d="M310 0l-128 269h-6l-3 -7v-262h-125v700h125v-250h2l123 250h118l-169 -313l207 -387h-144z" />
    <glyph glyph-name="L" unicode="L" horiz-adv-x="362" 
d="M173 100h164v-100h-289v700h125v-600z" />
    <glyph glyph-name="M" unicode="M" horiz-adv-x="596" 
d="M380 700h168v-700h-125v431l-82 -431h-86l-80 431h-2v-431h-125v700h169l80 -419h2z" />
    <glyph glyph-name="N" unicode="N" horiz-adv-x="471" 
d="M298 700h125v-700h-125l-123 401h-2v-401h-125v700h132l116 -388h2v388z" />
    <glyph glyph-name="O" unicode="O" horiz-adv-x="454" 
d="M230 709q87 0 134 -47.5t47 -108.5v-404q0 -61 -47 -109.5t-134 -48.5q-95 0 -141 47.5t-46 110.5v404q0 63 46 109.5t141 46.5zM286 151v401q0 19 -15.5 39t-40.5 20q-30 0 -46 -19.5t-16 -37.5v-403q0 -21 16 -40.5t46 -19.5q25 0 40.5 20.5t15.5 39.5z" />
    <glyph glyph-name="P" unicode="P" horiz-adv-x="444" 
d="M419 500q0 -104 -52.5 -161.5t-127.5 -57.5q-4 0 -33.5 0.5t-33.5 0.5v-282h-124v700h195q86 0 131 -56t45 -144zM172 388h25q64 0 84 19.5t20 92.5q0 100 -63 100h-66v-212z" />
    <glyph glyph-name="Q" unicode="Q" horiz-adv-x="455" 
d="M450 0h-101l-12 18q-43 -27 -106 -27q-94 0 -141 47.5t-47 108.5v405q0 62 47 109.5t141 47.5q87 0 134 -48.5t47 -108.5v-404q0 -35 -16 -67zM231 91q29 0 48 30l-40 68h48v363q0 19 -15.5 38t-40.5 19q-29 0 -46 -19t-17 -37v-403q0 -21 17 -40t46 -19z" />
    <glyph glyph-name="R" unicode="R" horiz-adv-x="473" 
d="M461 0h-130l-119 282h-40v-282h-124v700h209q86 0 131.5 -56t45.5 -144q0 -75 -28.5 -126t-76.5 -75zM172 600v-212h40q64 0 83.5 19t19.5 93q0 100 -62 100h-81z" />
    <glyph glyph-name="S" unicode="S" horiz-adv-x="438" 
d="M399 504h-125v29q0 35 -16 55.5t-40 20.5t-40 -15.5t-16 -39.5q0 -46 35 -86l125 -143q44 -51 62.5 -86t18.5 -92q0 -73 -53 -115t-132 -42q-78 0 -130 42t-52 115v73h126v-65q0 -31 15.5 -47.5t40.5 -16.5q24 0 40 17t16 47q0 48 -41 95l-104 107q-5 6 -22.5 26
t-20.5 24.5t-15 20t-14 21.5t-9 20t-8 24.5t-3 26t-2 33.5q0 71 51 113.5t132 42.5q80 0 130.5 -43.5t50.5 -112.5v-49z" />
    <glyph glyph-name="T" unicode="T" horiz-adv-x="432" 
d="M407 700v-99h-129v-601h-125v601h-128v99h382z" />
    <glyph glyph-name="U" unicode="U" horiz-adv-x="465" 
d="M292 700h125v-553q0 -60 -47 -108t-134 -48q-94 0 -141 47t-47 109v553h125v-552q0 -19 16.5 -38t46.5 -19q25 0 40.5 19t15.5 38v552z" />
    <glyph glyph-name="V" unicode="V" horiz-adv-x="499" 
d="M474 700l-161 -700h-133l-155 700h134l89 -518h2l91 518h133z" />
    <glyph glyph-name="W" unicode="W" horiz-adv-x="743" 
d="M602 700h116l-141 -700h-122l-83 413l-83 -413h-122l-142 700h123l81 -519h3l82 519h122l81 -519h3z" />
    <glyph glyph-name="X" unicode="X" horiz-adv-x="487" 
d="M462 700l-153 -350l153 -350h-120l-102 231l-94 -231h-121l154 350l-154 350h121l101 -232l95 232h120z" />
    <glyph glyph-name="Y" unicode="Y" horiz-adv-x="463" 
d="M292 272v-272h-121v272l-146 428h122l85 -338h2l81 338h123z" />
    <glyph glyph-name="Z" unicode="Z" horiz-adv-x="467" 
d="M432 700l-1 -107l-268 -493h254v-100h-382v125l255 475h-232v100h374z" />
    <glyph glyph-name="bracketleft" unicode="[" horiz-adv-x="256" 
d="M208 681h-82v-662h82v-19h-160v700h160v-19z" />
    <glyph glyph-name="bracketright" unicode="]" horiz-adv-x="257" 
d="M130 681h-82v19h161v-700h-161v19h82v662z" />
    <glyph glyph-name="underscore" unicode="_" horiz-adv-x="420" 
d="M425 -57v-19h-430v19h430z" />
    <glyph glyph-name="a" unicode="a" horiz-adv-x="493" 
d="M351 0l-25 163h-121l-24 -163h-118l144 700h125l144 -700h-125zM226 263h80l-38 251h-3zM40 -19h122l-28 -28h-117l143 700l23 22zM334 -19h123l-28 -28h-125l-24 162h-63l4 28h90zM248 287l18 113l18 -120h-35z" />
    <glyph glyph-name="b" unicode="b" horiz-adv-x="476" 
d="M352 378q107 -47 107 -178q0 -87 -49.5 -143.5t-137.5 -56.5h-185v700h162q87 0 134.5 -46.5t47.5 -131.5q0 -46 -21.5 -87.5t-57.5 -56.5zM212 599v-165h6q65 0 84 16t19 67q0 82 -63 82h-46zM254 101q37 0 61.5 28.5t24.5 70.5q0 62 -23 95t-80 33h-25v-227h42z
M212 -20h60q37 0 73 13q-49 -41 -119 -41h-186v700l28 28v-700h144zM237 309q45 0 64.5 -25.5t19.5 -84.5q0 -47 -30 -69q2 14 2 23q0 101 -63 121v35h7zM274 457v14q0 69 -44 79v30h28q25 0 35 -15t10 -46q0 -15 -0.5 -23.5t-3.5 -17.5t-9 -13.5t-16 -7.5z" />
    <glyph glyph-name="c" unicode="c" horiz-adv-x="469" 
d="M454 552v-54h-126v53q0 19 -16 38.5t-41 19.5q-30 0 -46 -19t-16 -39v-402q0 -20 16 -39t46 -19q25 0 41 19.5t16 38.5v53h126v-54q0 -61 -47.5 -109t-135.5 -48q-96 0 -142.5 47t-46.5 110v404q0 63 46.5 110t142.5 47q88 0 135.5 -48t47.5 -109zM63 147
q0 -72 53.5 -124t154.5 -52q43 0 79 13q-50 -41 -126 -41q-96 0 -142.5 47.5t-46.5 110.5v403q0 56 37 97q-9 -24 -9 -50v-404zM281 110v45l28 28v-35q0 -9 -7.5 -21t-20.5 -17zM435 478l-28 -28h-126v53q0 18 -14.5 37t-37.5 21q12 28 42 28q17 0 27.5 -13.5t10.5 -25.5
v-72h126z" />
    <glyph glyph-name="d" unicode="d" horiz-adv-x="502" 
d="M458 583q9 -39 9 -83v-300q0 -86 -39 -143t-116 -57h-225v700h225q53 0 93.5 -33t52.5 -84zM349 200v300q0 99 -63 99h-74v-498h74q63 0 63 99zM212 -19h100q24 0 50 8q-42 -37 -97 -37h-225v700h28v-671h144zM286 581q21 0 32.5 -16.5t11.5 -65.5v-300q0 -69 -30 -80
q2 22 2 34v299q0 100 -62 100h-10v29h56z" />
    <glyph glyph-name="e" unicode="e" horiz-adv-x="403" 
d="M212 101h191v-101h-316v700h302v-101h-177v-171h126v-100h-126v-227zM68 652v-671h288v-29h-316v700h28zM292 281h-62v28h62v-28zM342 552h-112v29h112v-29z" />
    <glyph glyph-name="f" unicode="f" horiz-adv-x="387" 
d="M211 700h176v-101h-176v-171h126v-100h-126v-328h-125v700h125zM229 281v28h61v-28h-61zM68 652v-671h96v-29h-124v700h28zM229 552v29h112v-29h-112z" />
    <glyph glyph-name="g" unicode="g" horiz-adv-x="488" 
d="M453 552v-54h-126v53q0 19 -15.5 38.5t-40.5 19.5q-30 0 -47 -19.5t-17 -38.5v-402q0 -19 17 -38.5t47 -19.5q34 0 52 24t18 67v106h-70v100h182v-216q0 -76 -46.5 -128.5t-135.5 -52.5q-96 0 -143 47.5t-47 109.5v404q0 62 47 109.5t143 47.5q87 0 134.5 -48t47.5 -109z
M407 450h-126v53q0 18 -15 37t-38 21q10 29 43 29q17 0 27.5 -14t10.5 -26v-72h98v-28zM63 147q0 -72 53.5 -123.5t154.5 -51.5q42 0 75 11q-48 -40 -122 -40q-96 0 -142.5 47.5t-46.5 110.5v403q0 57 35 98q-7 -30 -7 -51v-404zM293 113q2 12 2 21v106h-69v100h27v-72h70
v-87q0 -55 -30 -68z" />
    <glyph glyph-name="h" unicode="h" horiz-adv-x="508" 
d="M343 700h125v-700h-125v328h-132v-328h-125v700h125v-272h132v272zM68 652v-672h97v-28h-125v700h28zM324 652v-206h-28v206h28zM324 309v-329h97v-28h-125v329h-66v28h94z" />
    <glyph glyph-name="i" unicode="i" horiz-adv-x="251" 
d="M86 700h125v-700h-125v700zM68 652v-671h97v-29h-125v700h28z" />
    <glyph glyph-name="j" unicode="j" horiz-adv-x="390" 
d="M224 700h126v-552q0 -62 -47 -109.5t-142 -47.5q-81 0 -117 45l62 74q24 -19 55 -19q29 0 46 19.5t17 38.5v551zM205 148q0 -8 -7 -19.5t-21 -16.5v540h28v-504zM161 -28q50 0 89 14q-52 -43 -136 -43q-77 0 -117 45l31 37l1 -2q45 -51 132 -51z" />
    <glyph glyph-name="k" unicode="k" horiz-adv-x="497" 
d="M493 0h-144l-128 268h-6l-4 -5v-263h-125v700h125v-250h3l122 250h119l-168 -312zM337 -20h94l15 -28h-143l-73 152v102zM68 652v-672h97v-28h-125v700h28z" />
    <glyph glyph-name="l" unicode="l" horiz-adv-x="392" 
d="M211 100h164v-100h-289v700h125v-600zM68 652v-672h260v-28h-288v700h28z" />
    <glyph glyph-name="m" unicode="m" horiz-adv-x="626" 
d="M418 700h168v-700h-125v432l-81 -432h-87l-79 432h-2v-432h-125v700h169l80 -419h2zM69 652v-672h96v-28h-125v700h29zM390 652l-53 -280l-10 50l44 230h19zM443 238v-258h97v-28h-125v132zM230 238l48 -258h61l-5 -28h-88l-16 87v199z" />
    <glyph glyph-name="n" unicode="n" horiz-adv-x="501" 
d="M336 700h125v-700h-125l-123 400h-2v-400h-125v700h132l116 -389h2v389zM318 652v-225l-28 95v130h28zM68 652v-672h97v-28h-125v700h28zM230 282l92 -302h93v-28h-125l-60 195v135z" />
    <glyph glyph-name="o" unicode="o" horiz-adv-x="485" 
d="M269 709q87 0 134 -48.5t47 -108.5v-404q0 -60 -47 -108.5t-134 -48.5q-95 0 -141 47.5t-46 108.5v405q0 62 46 109.5t141 47.5zM325 150v402q0 19 -15.5 38t-40.5 19q-30 0 -46 -18.5t-16 -37.5v-403q0 -21 16 -40t46 -19q25 0 40.5 20t15.5 39zM63 147q0 -72 53 -124
t153 -52q38 0 79 12q-48 -40 -125 -40q-96 0 -142 47.5t-46 109.5v404q0 58 35 99q-7 -30 -7 -52v-404zM269 590q17 0 27.5 -13.5t10.5 -25.5v-402q0 -9 -8 -22t-20 -17v394q0 18 -14.5 36.5t-37.5 21.5q10 28 42 28z" />
    <glyph glyph-name="p" unicode="p" horiz-adv-x="479" 
d="M282 700q86 0 131.5 -56t45.5 -144q0 -103 -53 -161t-127 -58q-59 0 -67 1v-282h-125v700h195zM237 388q63 0 83 19t20 93q0 99 -62 99h-66v-211h25zM68 652v-671h97v-29h-125v700h28zM278 581q20 0 31.5 -17t11.5 -65q0 -46 -6 -65t-24 -24q2 11 2 42q0 100 -62 100
l-1 29h48zM230 262h15q60 0 95 10q-47 -38 -110 -38v28z" />
    <glyph glyph-name="q" unicode="q" horiz-adv-x="485" 
d="M269 -9q-94 0 -140.5 47.5t-46.5 109.5v404q0 62 46.5 109.5t140.5 47.5q87 0 134 -48t47 -109v-404q0 -35 -16 -66l54 -82h-102l-11 19q-44 -28 -106 -28zM207 553v-402q0 -21 16 -40.5t46 -19.5q29 0 48 30l-39 68h47v363q0 19 -15.5 38.5t-40.5 19.5q-30 0 -46 -19
t-16 -38zM278 503q0 18 -14 37t-37 21q12 29 42 29q17 0 27 -14t10 -26v-343h-28v296zM247 115l-16 27h47v7l16 -28q-11 -13 -25 -13q-13 0 -22 7zM375 -20h48l19 -28h-103l-10 19q-44 -28 -106 -28q-94 0 -141 48t-47 110v403q0 56 37 99q-9 -27 -9 -52v-404
q0 -72 53 -123.5t153 -51.5q55 0 99 21z" />
    <glyph glyph-name="r" unicode="r" horiz-adv-x="504" 
d="M370 0l-119 281q-11 0 -24.5 0.5t-14.5 0.5v-282h-125v700h209q86 0 131.5 -56t45.5 -144q0 -75 -28.5 -126t-76.5 -75l132 -299h-130zM212 388h39q63 0 83 19t20 93q0 99 -62 99h-80v-211zM68 652v-671h97v-29h-125v700h28zM292 581q20 0 31.5 -17t11.5 -65
q0 -46 -6 -65t-24 -24q2 11 2 42q0 100 -62 100h-15v29h62zM358 -20h83l12 -28h-129l-94 220v90h9z" />
    <glyph glyph-name="s" unicode="s" horiz-adv-x="485" 
d="M369 324q44 -50 62.5 -85t18.5 -91q0 -73 -53.5 -115t-132.5 -42q-78 0 -129.5 42t-51.5 115v73h124v-66q0 -30 16.5 -47t40.5 -17t40 17.5t16 46.5q0 56 -40 96l-105 105q-57 57 -75 92.5t-18 103.5q0 71 51 114t131 43t130.5 -43.5t50.5 -113.5v-48h-125v28
q0 36 -16 57t-40 21q-23 0 -40 -16t-17 -39q0 -45 37 -87zM65 147q0 -79 55 -127.5t144 -48.5q46 0 86 14q-53 -42 -132 -42t-130.5 42t-51.5 116v72h29v-26zM198 239l-70 70q-57 57 -75 92t-18 103q0 58 35 99q-7 -28 -7 -52q0 -71 20.5 -111t78.5 -98l103 -104
q37 -38 37 -84q0 -37 -28 -44q-1 47 -40 93l-8 7v29h-28zM277 457l-3 3v25q0 32 -13.5 52t-33.5 24q7 29 37 29q17 0 27.5 -16t10.5 -43v-46h97v-28h-122z" />
    <glyph glyph-name="t" unicode="t" horiz-adv-x="446" 
d="M64 700h382v-100h-129v-600h-125v600h-128v100zM174 581v-600h96v-28h-125v600h-128v100h28v-72h129zM336 553v28h63v-28h-63z" />
    <glyph glyph-name="u" unicode="u" horiz-adv-x="495" 
d="M330 700h125v-553q0 -60 -47 -108t-134 -48q-95 0 -141 47.5t-46 108.5v553h125v-552q0 -19 16 -38t46 -19q25 0 40.5 19.5t15.5 37.5v552zM312 147q0 -9 -8 -21t-20 -16v542h28v-505zM68 652v-505q0 -72 53 -124t153 -52q42 0 79 13q-50 -41 -125 -41q-96 0 -142 47
t-46 110v552h28z" />
    <glyph glyph-name="v" unicode="v" horiz-adv-x="530" 
d="M380 700h133l-161 -700h-133l-155 700h134l89 -518h2zM353 653l-64 -372l-11 58l55 314h20zM55 653l149 -672h108l-7 -28h-133l-155 700h38z" />
    <glyph glyph-name="w" unicode="w" horiz-adv-x="775" 
d="M642 700h116l-141 -700h-123l-83 413l-83 -413h-123l-141 700h123l81 -518h2l83 518h123l81 -518h3zM616 652l-58 -361l-10 66l47 295h21zM327 652l-58 -361l-10 66l48 295h20zM411 318l67 -338h98l-6 -28h-122l-55 274zM55 652l135 -672h97l-5 -28h-124l-141 700h38z
" />
    <glyph glyph-name="x" unicode="x" horiz-adv-x="517" 
d="M500 700l-154 -350l154 -350h-120l-102 231l-94 -231h-120l153 350l-153 350h120l102 -232l94 232h120zM368 -20h73l13 -28h-121l-76 176l22 55zM197 349l-161 -369h113l-12 -28h-120l153 350l-153 350h47z" />
    <glyph glyph-name="y" unicode="y" horiz-adv-x="493" 
d="M353 700h123l-147 -428v-272h-120v272l-146 428h123l85 -337zM323 652l-52 -216l-9 33l44 183h17zM190 268v-288h93v-28h-121v272l-145 428h43z" />
    <glyph glyph-name="z" unicode="z" horiz-adv-x="476" 
d="M459 700v-106l-268 -494h254v-100h-381v126l254 474h-231v100h372zM273 553h-233v99h28v-71h220zM45 130v-150h354v-28h-382v126z" />
    <glyph glyph-name="sterling" unicode="&#xa3;" horiz-adv-x="478" 
d="M171 100h264v-100h-392v100q23 0 22 190v89h-22v19h22v155q0 71 51.5 114t131.5 43t130.5 -43.5t50.5 -113.5v-49h-125v29q0 36 -16 56t-40 20t-40 -15.5t-16 -39.5v-156h109v-19h-109v-176q0 -27 -6 -65t-15 -38z" />
    <glyph glyph-name="yen" unicode="&#xa5;" horiz-adv-x="447" 
d="M284 273h119v-19h-119v-81h119v-19h-119v-154h-120v154h-120v19h120v81h-120v19h120l-147 427h123l84 -337h2l81 337h123z" />
    <glyph glyph-name="endash" unicode="&#x2013;" horiz-adv-x="339" 
d="M291 223v-19h-243v19h243z" />
    <glyph glyph-name="emdash" unicode="&#x2014;" horiz-adv-x="526" 
d="M478 223v-19h-430v19h430z" />
    <glyph glyph-name="quoteleft" unicode="&#x2018;" 
d="M173 575h-125v128l66 53h29l-69 -56h99v-125z" />
    <glyph glyph-name="quoteright" unicode="&#x2019;" 
d="M48 700h125v-128l-66 -53h-29l69 56h-99v125z" />
    <glyph glyph-name="quotedblleft" unicode="&#x201c;" horiz-adv-x="393" 
d="M345 700v-125h-125v128l65 53h30l-69 -56h99zM173 575h-125v128l65 53h30l-69 -56h99v-125z" />
    <glyph glyph-name="quotedblright" unicode="&#x201d;" horiz-adv-x="393" 
d="M48 575v125h125v-128l-65 -53h-30l69 56h-99zM220 700h125v-128l-65 -53h-30l69 56h-99v125z" />
    <glyph glyph-name="Euro" unicode="&#x20ac;" horiz-adv-x="479" 
d="M436 497h-126v55q0 19 -16 38t-41 19q-30 0 -46 -18.5t-16 -38.5v-142h117v-19h-117v-82h117v-19h-117v-142q0 -20 16 -38.5t46 -18.5q25 0 41 19t16 38v55h126v-55q0 -60 -47.5 -108.5t-135.5 -48.5q-96 0 -142.5 47.5t-46.5 109.5v142h-21v19h21v82h-21v19h21v142
q0 62 46.5 109.5t142.5 47.5q88 0 135.5 -48.5t47.5 -108.5v-55z" />
    <glyph glyph-name="zero.alt" unicode="&#xe000;" horiz-adv-x="487" 
d="M267 705q87 0 136 -48.5t49 -108.5v-402q0 -60 -49 -107.5t-136 -47.5t-136.5 48t-49.5 107v402q0 60 49.5 108.5t136.5 48.5zM326 388v159q0 18 -17 38t-42 20t-43 -20t-18 -38v-400q0 -18 18 -37.5t43 -19.5t42 19.5t17 37.5v241zM63 146q0 -68 55 -121t149 -53
q42 0 81 13q-51 -41 -128 -41q-87 0 -136 48t-49 108v402q0 52 35 93q-7 -28 -7 -47v-402zM267 587q17 0 29 -14.5t12 -25.5v-400q0 -8 -8 -19t-20 -17v390q0 17 -15 35.5t-37 21.5q11 29 39 29z" />
    <glyph glyph-name="one.alt" unicode="&#xe001;" horiz-adv-x="283" 
d="M118 700h125v-700h-125v599h-55v73zM100 582v-600h96v-29h-124v600h-55v72l28 14v-57h55z" />
    <glyph glyph-name="two.alt" unicode="&#xe002;" horiz-adv-x="499" 
d="M284 268q-63 -65 -63 -147l1 -20h227v-101h-355q-13 15 -13 89q0 63 27.5 125t68.5 110l125 144q37 42 37 87q0 23 -17 39t-40 16q-24 0 -40 -21t-16 -57v-28h-125v48q0 70 50.5 113.5t130.5 43.5t131 -43t51 -114q0 -67 -19 -103t-74 -93q-29 -28 -87 -88zM179 486v-28
h-125v47q0 58 36 99q-8 -27 -8 -52v-66h97zM320 555q0 -36 -31 -74q2 8 2 27q0 20 -12 34.5t-31 18.5q11 30 34 30q16 0 27 -10.5t11 -25.5zM80 -12l6 -6h317v-29h-355q-13 15 -13 89q0 96 62 192q-34 -75 -34 -145q0 -80 17 -101z" />
    <glyph glyph-name="three.alt" unicode="&#xe003;" horiz-adv-x="477" 
d="M336 378q116 -51 116 -178q0 -86 -55.5 -147.5t-142.5 -61.5q-88 0 -135.5 48t-47.5 109v54h126v-53q0 -19 16 -38.5t41 -19.5q35 0 52.5 31.5t17.5 77.5q0 62 -23 95t-80 33h-25v100h7q56 0 81.5 27t25.5 68q0 39 -16 62.5t-40 23.5q-25 0 -41 -19.5t-16 -38.5v-47h-126
v48q0 61 47.5 109t135.5 48q82 0 128.5 -47t46.5 -130q0 -50 -28.5 -94.5t-64.5 -59.5zM150 486v-28h-125v47q0 54 35 96q-7 -19 -7 -49v-66h97zM156 381q9 0 21 2v-74h44q45 0 64.5 -25.5t19.5 -83.5q0 -67 -32 -85q4 16 4 39q0 61 -23 94t-79 33h-26v100h7zM291 523
q0 -44 -29 -62q1 5 1 15q0 35 -12.5 57.5t-33.5 27.5q12 30 37 30q16 0 26.5 -19.5t10.5 -48.5zM53 148q0 -71 53.5 -123t147.5 -52q37 0 74 13q-52 -42 -121 -42q-88 0 -135 48.5t-47 109.5v54h28v-8z" />
    <glyph glyph-name="four.alt" unicode="&#xe004;" horiz-adv-x="526" 
d="M508 255l1 -93h-89v-162h-125v162h-213v99l213 439h125v-445h88zM295 255v244l-120 -244h120zM276 144v-163h97v-28h-125v163h-213v99l29 51v-122h212zM276 273h-28v89l28 58v-147zM439 144h22v-28h-22v28z" />
    <glyph glyph-name="five.alt" unicode="&#xe005;" horiz-adv-x="495" 
d="M280 500q69 0 124.5 -49t55.5 -127v-121q0 -86 -55 -146.5t-142 -60.5t-134.5 48t-47.5 107v55h125v-54q0 -18 16 -37.5t41 -19.5q22 0 37 13.5t21.5 32.5t10 47t3 48t-1.5 47t-1 32q0 37 -21.5 61t-47.5 24q-34 0 -50 -35h-123v335h328v-99h-203v-125q7 10 29 17t36 7z
M315 203q0 -66 -32 -85q3 20 3 39q0 123 -9 151q-10 35 -50 45l2 4q3 8 11.5 16.5t22.5 8.5q18 0 34.5 -19t16.5 -48q0 -6 0.5 -48t0.5 -64zM63 151q0 -70 53.5 -122t146.5 -52q37 0 74 13q-50 -41 -121 -41q-87 0 -134 48t-47 108v55h28v-9zM191 347q-17 -10 -25 -29h-122
v336h28v-307h119zM371 555h-138v28h138v-28z" />
    <glyph glyph-name="six.alt" unicode="&#xe006;" horiz-adv-x="495" 
d="M291 426q81 0 125 -45t44 -110q0 -5 -0.5 -49t-0.5 -49q0 -83 -51 -132.5t-145 -49.5q-87 0 -134.5 47.5t-47.5 107.5v350q0 86 52.5 147.5t135.5 61.5t128.5 -48.5t45.5 -108.5v-47h-120v46q0 24 -14.5 41t-39.5 17q-62 0 -62 -109v-109q31 39 84 39zM332 173
q0 4 0.5 48.5t0.5 49.5q0 24 -18.5 39t-43.5 15q-29 0 -46.5 -10.5t-17.5 -24.5v-143q0 -19 16 -38t41 -19q68 0 68 83zM63 496v-350q0 -70 53.5 -122t146.5 -52q51 0 91 15q-51 -43 -138 -43t-134 48t-47 108v350q0 79 43 136q-9 -27 -15 -90zM396 454h-119v47
q0 21 -11.5 37t-31.5 19q11 30 35 30q17 0 26 -12t9 -28v-65h92v-28zM271 307q17 0 30.5 -9.5t13.5 -26.5q0 -114 -7 -135q-7 -19 -23 -25v42q2 51 2 71q0 25 -18.5 40t-43.5 15v11q1 3 5 6.5t15 7t26 3.5z" />
    <glyph glyph-name="seven.alt" unicode="&#xe007;" horiz-adv-x="445" 
d="M65 700h363v-98l-198 -602h-138l202 600h-229v100zM268 582l-202 -601h127l-9 -27h-138l202 600h-231v100h29v-72h222z" />
    <glyph glyph-name="eight.alt" unicode="&#xe008;" horiz-adv-x="519" 
d="M369 375q115 -49 115 -177q0 -86 -55 -146.5t-142 -60.5q-91 0 -148 58.5t-57 148.5q0 128 116 177q-36 15 -64.5 59.5t-28.5 94.5q0 82 46.5 129t127.5 47q86 0 134 -45.5t48 -130.5q0 -51 -28 -95t-64 -59zM286 605q-29 0 -45.5 -23.5t-16.5 -61.5q0 -68 59 -88
q60 21 60 88q0 39 -14.5 62t-42.5 23zM297 91q30 4 45 34.5t15 72.5q0 111 -74 125q-73 -14 -73 -125q0 -46 17 -76.5t51 -31.5q4 0 10 0.5t9 0.5zM284 -28q42 0 77 13q-50 -41 -121 -41q-91 0 -148 59.5t-57 148.5q0 74 41 122q-13 -36 -13 -76q0 -98 63.5 -162t157.5 -64z
M122 348q-28 22 -45.5 58.5t-17.5 76.5q0 76 39 121q-12 -39 -12 -75q0 -45 21 -86t53 -67q-19 -11 -38 -28zM283 304q56 -12 56 -106q0 -66 -32 -85q4 24 4 39q0 105 -68 122q12 22 40 30zM297 474q0 35 -12.5 57.5t-35.5 25.5q11 30 37 30q39 0 39 -67q0 -41 -29 -61
q0 2 0.5 7t0.5 8z" />
    <glyph glyph-name="nine.alt" unicode="&#xe009;" horiz-adv-x="497" 
d="M280 705q87 0 134.5 -48.5t47.5 -108.5v-350q0 -86 -53 -146.5t-136 -60.5t-128 48t-45 107v55h120v-54q0 -23 14.5 -40t38.5 -17q62 0 62 108v111q-28 -39 -84 -39q-81 0 -125 44.5t-44 110.5q0 5 0.5 49t0.5 48q0 83 51.5 133t145.5 50zM335 529v18q0 19 -15.5 38.5
t-39.5 19.5q-35 0 -50.5 -19.5t-18 -45t-2.5 -90.5v-25q0 -26 18.5 -41t43.5 -15q28 0 46 11t18 24v125zM82 146q0 -70 51 -122t140 -52q35 0 66 11q-49 -39 -112 -39q-83 0 -128 48t-45 108v55h28v-9zM205 223q-81 0 -125 44.5t-44 110.5v23q0 56 1.5 82.5t10.5 58.5t29 54
q-4 -9 -6.5 -22t-4 -23t-2 -29t-0.5 -28.5v-34.5v-34q0 -72 48 -123t139 -51q11 0 33 4q-30 -32 -79 -32zM279 587q17 0 27.5 -14t10.5 -26v-143q0 -9 -28 -15v112q0 19 -15.5 38t-40.5 20q10 28 46 28zM317 268v-70q0 -74 -31 -88q3 19 3 42v105q20 6 28 11z" />
    </font>
</defs>
</svg>
